<svg xmlns="http://www.w3.org/2000/svg" viewBox="-20324.965 -16709.734 57.051 51.156"><g transform="translate(-20324.966 -16709.735)"><g transform="translate(0 0)"><g transform="translate(0 0)"><path d="M-24.577,1018.879h-.015a.992.992,0,0,0-.1.02.982.982,0,0,0-.238.069l-22.747,9.729a.983.983,0,0,0-.822.98v29.518a.986.986,0,0,0,.008.12c0,.006,0,.013,0,.02s.007.041.012.061a.983.983,0,0,0,.6.742l22.955,9.817a.915.915,0,0,0,.131.043,1.01,1.01,0,0,0,.181.035h.035q.038,0,.077,0h.1q.048-.008.1-.02a.986.986,0,0,0,.2-.057l12.48-5.337a10.766,10.766,0,0,0,1.714,2.252,10.836,10.836,0,0,0,15.308,0,10.841,10.841,0,0,0,0-15.308,10.751,10.751,0,0,0-5.933-3.016v-18.862a.984.984,0,0,0-.834-.984l-22.736-9.725a.984.984,0,0,0-.257-.073h-.1a.98.98,0,0,0-.1,0Zm.054,2.052,4.822,2.06-20.438,8.742-.058.028-4.822-2.064,20.5-8.764Zm7.324,3.132,5.852,2.505-20.822,8.9a.984.984,0,0,0-.592,1.2v10.432l-2.133-3.2a.984.984,0,0,0-1.26-.335l-2.509,1.253v-11.585l21.464-9.179Zm8.346,3.569,4.826,2.063-20.5,8.769-4.822-2.063,20.438-8.742.054-.028Zm-37.679,3.558,5.9,2.524v12.707a.984.984,0,0,0,.466.835.983.983,0,0,0,.956.044l3.159-1.579,3.4,5.1a.984.984,0,0,0,.98.527.91.91,0,0,0,.1-.02h.031l.065-.02a.98.98,0,0,0,.261-.13.984.984,0,0,0,.415-.934v-12.319l5.287,2.259v27.377l-21.026-8.995v-27.374Zm44.019,0v17.21a10.783,10.783,0,0,0-7.408,3.151,10.753,10.753,0,0,0-2.882,5.233.831.831,0,0,0-.081.028l-2.34,1-5.737,2.452a.984.984,0,0,0-.519,1.291.984.984,0,0,0,1.291.519l5.737-2.456,1.372-.584a10.876,10.876,0,0,0,.622,3.781l-11.082,4.741v-27.377l21.026-8.991Zm.246,19.158a8.82,8.82,0,0,1,6.263,2.6h0a8.851,8.851,0,0,1,0,12.534,8.844,8.844,0,0,1-12.526,0,8.841,8.841,0,0,1,0-12.526,8.831,8.831,0,0,1,6.263-2.6Zm-12.6,3.454a.989.989,0,0,0-.354.085l-5.737,2.455a.984.984,0,0,0-.519,1.291.984.984,0,0,0,1.291.519l5.737-2.456a.984.984,0,0,0,.59-1.124.984.984,0,0,0-1.009-.77Zm14.432.238a.984.984,0,0,0-.924.6.984.984,0,0,0,.21,1.081l2.417,2.505H-8.159a.984.984,0,0,0-.984.984.984.984,0,0,0,.984.984H1.286l-2.532,2.486a.985.985,0,0,0-.013,1.393.985.985,0,0,0,1.393.013l4.192-4.119a.984.984,0,0,0,.019-1.383l-4.081-4.23a.985.985,0,0,0-.7-.311Z" transform="translate(48.5 -1018.879)"/></g></g></g></svg>